<svg width="32" height="37" fill="none" xmlns="http://www.w3.org/2000/svg"><mask id="a" style="mask-type:luminance" maskUnits="userSpaceOnUse" x="0" y="0" width="32" height="37"><path d="M21.39 19.814c.37.95.737 1.902 1.102 2.854.405 1.056.805 2.126 1.243 3.168l6.394 6.754-.612.695c-1.994 2.264-4.61 3.485-7.61 3.611-1.256.053-2.856-.099-4.061-.508l-.806-.27 1.443-9.821c-.428-.05-.858-.085-1.288-.107l-.092-.004c-2.199-.11-4.094-.27-5.95-1.61-2.765-2-4.26-5.965-5.172-9.11a20.426 20.426 0 0 1-.388-1.548L0 12.005l5.564-3.198c.45-1.618 1.449-2.917 3.035-3.578 1.094-.456 2.308-.606 3.47-.34 1.158.263 2.15.904 2.904 1.819.613.743 1.144 1.591 1.622 2.427l.043.075L22.776 0l.86.665c.66.505 1.329 1.228 1.83 1.88.926 1.203 1.605 2.587 1.828 4.083l4.432-2.175.079 1.536c.122 2.262-.294 5.058-1.063 7.164-.678 1.859-1.732 3.57-3.312 4.793-1.765 1.367-3.865 1.883-6.04 1.868" fill="#fff"/></mask><g mask="url(#a)"><path d="M31.928 0H0v36.95h31.928V0Z" fill="url(#b)"/></g><path d="m3.656 11.414 1.94.05-1.578.447 1.887.565a10.842 10.842 0 0 1-.056-2.146l-2.194 1.084Z" fill="url(#c)"/><path d="M20 33.35a8.863 8.863 0 0 1-1.023-.17l-.28 1.907c.236.062.575.138.992.203L20 33.35Z" fill="url(#d)"/><path d="M22.764 33.212a8.885 8.885 0 0 1-1.816.188l-.32 1.995c.727.049 1.577.036 2.484-.12l-.348-2.063Z" fill="url(#e)"/><path d="M25.038 32.401c-.437.227-.89.416-1.356.567l.354 2.1a8.82 8.82 0 0 0 1.941-.796l-.94-1.87Z" fill="url(#f)"/><path d="M26.78 31.214a8.843 8.843 0 0 1-.927.707l.926 1.845c.454-.322.9-.703 1.329-1.15l-1.327-1.402Z" fill="url(#g)"/><path d="M19.115 32.242a7.938 7.938 0 0 0 7.015-1.715l-3.543-3.743c-.24-.115-1.102-.496-2.555-.79l-.917 6.248Z" fill="url(#h)"/><path d="M21.893 9.884a7.888 7.888 0 0 0-1.294-3.934l-3.51 5.267c.135.27.27.545.405.825l4.398-2.158Z" fill="url(#i)"/><path d="m22.276 7.165 2.52-2.795a8.931 8.931 0 0 0-1.686-2.186l-1.947 2.92c.466.64.838 1.334 1.113 2.061Z" fill="url(#j)"/><path d="m25.236 5.293-2.635 2.925c.096.4.164.807.204 1.218l3.066-1.505a8.966 8.966 0 0 0-.634-2.638Z" fill="url(#k)"/><path d="m26.574 10.997 3.268-.101c.402-1.686.482-3.234.489-4.102l-3.484 1.709a9.86 9.86 0 0 1-.273 2.494" fill="url(#l)"/><path d="m24.916 14.558 2.741.99c.92-1.1 1.526-2.41 1.924-3.7l-3.288.102-.044.123a9.875 9.875 0 0 1-1.333 2.485Z" fill="url(#m)"/><path d="m22.726 16.72 1.003 1.297a7.367 7.367 0 0 0 3.217-1.723l-2.665-.962a9.89 9.89 0 0 1-1.555 1.388" fill="url(#n)"/><path d="m22.689 18.216-.758-.98a9.9 9.9 0 0 1-2.239.957c1.11.14 2.105.14 2.997.023Z" fill="url(#o)"/><path d="m14.595 13.465 2.05-1.006c-.448-.932-.899-1.806-1.343-2.584-.509-.888-1.006-1.649-1.478-2.222-.574-.697-1.297-1.135-2.083-1.314-.814-.185-1.703-.096-2.57.265-1.031.43-1.895 1.334-2.242 2.87-.304 1.35-.217 3.175.48 5.578 2.695 9.292 6.296 9.473 9.766 9.648l.092.005c2.178.11 3.78.517 4.746.842-.259-.654-.566-1.454-.909-2.348-.456-1.19-.98-2.554-1.582-4.065-.26-.032-2.158-.527-2.573-1.498a8.945 8.945 0 0 0 8.412-5.884c.332-.91.508-1.85.538-2.784-3.51 1.462-6.759 3.442-11.304 4.497Z" fill="url(#p)"/><mask id="q" style="mask-type:luminance" maskUnits="userSpaceOnUse" x="8" y="8" width="4" height="4"><path d="M10.083 8.438a1.758 1.758 0 1 1 0 3.516 1.758 1.758 0 0 1 0-3.516Z" fill="#fff"/></mask><g mask="url(#q)"><path d="M11.841 8.438H8.325v3.516h3.516V8.438Z" fill="url(#r)"/></g><path fill-rule="evenodd" clip-rule="evenodd" d="M10.916 8.457a.685.685 0 1 1 0 1.369.685.685 0 0 1 0-1.37Z" fill="url(#s)"/><defs><linearGradient id="b" x1="28.912" y1="43.168" x2="5.08" y2="-2.28" gradientUnits="userSpaceOnUse"><stop offset=".395" stop-color="#0E0837"/><stop offset="1" stop-color="#D71462"/></linearGradient><linearGradient id="c" x1="5.693" y1="12.837" x2="4.468" y2="10.001" gradientUnits="userSpaceOnUse"><stop offset=".395" stop-color="#0E0837"/><stop offset="1" stop-color="#D71462"/></linearGradient><linearGradient id="d" x1="19.877" y1="35.645" x2="18.298" y2="33.493" gradientUnits="userSpaceOnUse"><stop offset=".395" stop-color="#0E0837"/><stop offset="1" stop-color="#D71462"/></linearGradient><linearGradient id="e" x1="22.878" y1="35.792" x2="21.677" y2="32.813" gradientUnits="userSpaceOnUse"><stop offset=".395" stop-color="#0E0837"/><stop offset="1" stop-color="#D71462"/></linearGradient><linearGradient id="f" x1="25.76" y1="35.516" x2="24.037" y2="32.242" gradientUnits="userSpaceOnUse"><stop offset=".395" stop-color="#0E0837"/><stop offset="1" stop-color="#D71462"/></linearGradient><linearGradient id="g" x1="27.895" y1="34.195" x2="26.27" y2="31.026" gradientUnits="userSpaceOnUse"><stop offset=".395" stop-color="#0E0837"/><stop offset="1" stop-color="#D71462"/></linearGradient><linearGradient id="h" x1="25.468" y1="33.543" x2="21.865" y2="24.912" gradientUnits="userSpaceOnUse"><stop offset=".395" stop-color="#0E0837"/><stop offset="1" stop-color="#D71462"/></linearGradient><linearGradient id="i" x1="21.439" y1="13.067" x2="17.312" y2="5.885" gradientUnits="userSpaceOnUse"><stop offset=".395" stop-color="#0E0837"/><stop offset="1" stop-color="#D71462"/></linearGradient><linearGradient id="j" x1="24.453" y1="8.003" x2="20.951" y2="2.367" gradientUnits="userSpaceOnUse"><stop offset=".395" stop-color="#0E0837"/><stop offset="1" stop-color="#D71462"/></linearGradient><linearGradient id="k" x1="25.562" y1="10.133" x2="22.758" y2="5.246" gradientUnits="userSpaceOnUse"><stop offset=".395" stop-color="#0E0837"/><stop offset="1" stop-color="#D71462"/></linearGradient><linearGradient id="l" x1="29.976" y1="11.704" x2="27.317" y2="6.461" gradientUnits="userSpaceOnUse"><stop offset=".395" stop-color="#0E0837"/><stop offset="1" stop-color="#D71462"/></linearGradient><linearGradient id="m" x1="29.141" y1="16.171" x2="27.294" y2="11.032" gradientUnits="userSpaceOnUse"><stop offset=".395" stop-color="#0E0837"/><stop offset="1" stop-color="#D71462"/></linearGradient><linearGradient id="n" x1="26.547" y1="18.469" x2="25.427" y2="14.581" gradientUnits="userSpaceOnUse"><stop offset=".395" stop-color="#0E0837"/><stop offset="1" stop-color="#D71462"/></linearGradient><linearGradient id="o" x1="22.406" y1="18.48" x2="22.143" y2="16.852" gradientUnits="userSpaceOnUse"><stop offset=".395" stop-color="#0E0837"/><stop offset="1" stop-color="#D71462"/></linearGradient><linearGradient id="p" x1="29" y1="-1" x2="13.727" y2="32.268" gradientUnits="userSpaceOnUse"><stop offset=".069" stop-color="#0E0837"/><stop offset=".432" stop-color="#FF28AC"/><stop offset=".844" stop-color="#D71462"/></linearGradient><linearGradient id="r" x1="11.509" y1="12.546" x2="9.436" y2="7.971" gradientUnits="userSpaceOnUse"><stop offset=".395" stop-color="#0E0837"/><stop offset="1" stop-color="#D71462"/></linearGradient><linearGradient id="s" x1="11.471" y1="10.056" x2="10.664" y2="8.275" gradientUnits="userSpaceOnUse"><stop offset=".395" stop-color="#0E0837"/><stop offset="1" stop-color="#D71462"/></linearGradient></defs></svg>